<?xml version="1.0" standalone="no"?>
<!DOCTYPE svg PUBLIC "-//W3C//DTD SVG 20010904//EN"
 "http://www.w3.org/TR/2001/REC-SVG-20010904/DTD/svg10.dtd">
<svg version="1.0" xmlns="http://www.w3.org/2000/svg"
 width="626.000000pt" height="471.000000pt" viewBox="0 0 626.000000 471.000000"
 preserveAspectRatio="xMidYMid meet">

<g transform="translate(0.000000,471.000000) scale(0.100000,-0.100000)"
fill="#000000" stroke="none">
<path d="M573 4089 c-12 -6 -24 -18 -27 -26 -10 -24 28 -95 73 -138 46 -44 49
-52 24 -70 -16 -12 -15 -16 12 -56 37 -57 140 -164 181 -190 31 -19 78 -25
119 -15 11 2 26 5 34 5 11 1 11 4 1 16 -15 18 -6 15 93 -29 32 -15 64 -23 70
-20 7 4 9 3 4 -1 -4 -5 53 -41 125 -82 101 -55 140 -72 162 -68 29 4 122 -26
162 -52 12 -8 26 -12 30 -11 8 3 126 -41 164 -61 8 -5 15 -14 15 -21 0 -13 66
-51 115 -65 l25 -7 -23 25 c-18 18 -20 26 -10 30 14 6 3 18 -60 66 -18 13 -32
28 -32 33 0 5 7 2 16 -7 14 -13 19 -14 25 -4 6 10 9 9 15 -4 3 -9 13 -17 21
-17 8 0 27 -8 41 -19 34 -23 80 -47 67 -34 -5 6 -51 38 -102 71 -107 72 -155
119 -147 145 3 10 2 16 -3 15 -4 -2 -17 5 -28 14 -11 10 -38 33 -60 52 -22 19
-37 37 -34 41 4 3 86 -52 182 -122 162 -118 335 -240 364 -257 6 -3 15 -1 19
5 4 7 3 9 -3 6 -6 -4 -16 0 -23 8 -14 17 -123 99 -225 170 -38 27 -92 64 -120
84 -129 91 -180 121 -199 115 -12 -4 -16 -2 -12 5 4 6 3 11 -2 11 -5 0 -26 15
-46 33 -91 79 -614 352 -770 401 -97 31 -199 42 -233 25z m680 -535 c29 -15
60 -35 70 -45 17 -18 17 -19 0 -19 -10 0 -50 16 -88 35 -39 20 -61 33 -50 30
20 -5 20 -5 1 10 -33 26 7 19 67 -11z m411 -134 c35 -30 74 -63 89 -74 15 -10
24 -23 21 -28 -4 -6 -9 -6 -13 -2 -3 5 -85 49 -181 98 -173 88 -240 127 -148
86 53 -23 118 -35 118 -21 0 4 -10 21 -22 37 -22 28 -22 27 26 -6 26 -19 76
-60 110 -90z m67 -2 c10 -10 22 -18 25 -18 7 0 34 -27 34 -34 0 -10 -20 -6
-36 7 -30 25 -74 72 -74 80 0 8 13 -2 51 -35z"/>
<path d="M1991 4014 c0 -5 57 -42 126 -83 69 -41 161 -101 204 -133 44 -32 83
-58 87 -58 4 0 18 -10 32 -23 14 -12 68 -58 120 -102 106 -89 269 -249 295
-289 9 -14 21 -23 26 -20 5 3 9 2 8 -3 -3 -18 1 -36 8 -30 3 4 12 -1 20 -11 8
-9 -2 15 -22 53 -68 129 -249 326 -398 433 -116 83 -306 199 -388 236 -62 29
-119 43 -118 30z"/>
<path d="M2045 3841 c3 -6 -4 -15 -15 -21 -28 -15 -25 -49 8 -97 51 -75 77
-98 162 -140 47 -23 131 -67 188 -97 56 -30 102 -51 102 -48 0 4 4 0 10 -8 5
-8 13 -11 17 -6 7 8 -8 19 -22 17 -6 -2 -26 14 -55 43 -11 11 -24 15 -32 11
-10 -6 -10 -5 -2 4 9 10 19 9 44 -4 20 -10 29 -12 25 -4 -6 9 -2 11 13 7 30
-8 28 -4 -18 26 -50 33 -65 33 -25 1 17 -14 26 -25 20 -25 -17 1 -46 27 -49
45 -1 9 -29 33 -62 53 -119 74 -223 146 -219 150 2 2 55 -26 117 -64 184 -110
174 -99 -38 38 -74 48 -138 95 -142 105 -4 10 -13 19 -20 21 -8 1 -11 -2 -7
-7z"/>
<path d="M2090 3584 c0 -23 29 -81 48 -96 14 -12 14 -11 0 12 -8 14 -14 36
-12 50 2 25 -11 50 -27 50 -5 0 -9 -7 -9 -16z"/>
<path d="M2420 3586 c0 -3 9 -10 20 -16 11 -6 20 -8 20 -6 0 3 -9 10 -20 16
-11 6 -20 8 -20 6z"/>
<path d="M860 3548 c0 -54 61 -113 177 -171 50 -26 51 -27 46 -65 -13 -96 78
-170 308 -250 103 -36 241 -67 369 -81 52 -6 155 -21 229 -32 74 -11 145 -19
158 -16 32 6 128 -16 183 -42 25 -12 35 -20 23 -17 -35 6 -27 -11 7 -19 17 -4
30 -11 30 -16 0 -6 -9 -7 -21 -4 -20 7 -20 6 -5 -17 24 -36 8 -51 -44 -39 -27
6 -52 6 -68 0 -14 -5 -37 -8 -51 -5 -34 7 -347 33 -479 41 -68 3 -101 2 -97
-5 7 -11 -64 -5 -129 12 -21 5 -40 7 -43 4 -9 -9 36 -63 95 -116 41 -36 63
-49 77 -46 11 3 45 6 75 7 30 1 45 4 32 6 -18 4 -20 7 -9 17 7 7 26 20 42 28
l29 16 -65 6 c-112 12 -232 35 -243 46 -8 8 -3 8 16 1 50 -19 230 -32 323 -24
112 10 214 1 375 -33 135 -28 190 -49 105 -39 -136 15 -212 17 -220 6 -4 -7
-5 -14 -4 -15 2 -2 55 -6 118 -10 125 -7 163 -18 121 -35 l-25 -10 28 0 c15
-1 27 -6 27 -12 0 -6 -22 -9 -60 -8 -33 1 -63 -1 -67 -4 -3 -4 -16 -7 -27 -7
-12 0 -30 -8 -41 -16 -19 -15 -18 -16 15 -9 32 6 34 6 15 -8 -10 -8 -25 -13
-32 -10 -7 3 -13 1 -13 -3 0 -11 -83 -12 -91 -2 -3 5 -20 5 -38 2 -19 -4 -28
-10 -21 -14 7 -4 -1 -12 -20 -20 -17 -7 -33 -10 -37 -7 -3 4 5 11 18 16 13 5
19 10 13 10 -6 1 -37 -10 -70 -24 -44 -18 -52 -24 -33 -25 14 0 29 3 33 7 4 4
28 8 54 8 26 1 55 5 66 10 10 4 38 9 61 9 24 1 39 4 33 7 -9 6 38 9 187 13 22
1 44 -1 48 -3 12 -5 -65 -50 -86 -51 -10 0 -16 -4 -13 -8 3 -5 -26 -17 -65
-26 -38 -10 -72 -22 -74 -27 -9 -14 33 -20 72 -11 89 23 94 20 23 -14 -41 -20
-86 -41 -100 -46 -14 -6 -20 -12 -13 -15 7 -2 9 -11 6 -20 -5 -13 -2 -14 18
-4 l24 12 -21 -18 c-12 -10 -30 -23 -40 -30 -15 -10 -13 -10 13 -2 18 6 38 9
45 7 7 -3 -17 -15 -54 -27 -52 -17 -68 -27 -68 -41 0 -10 4 -21 9 -25 13 -7
157 63 193 94 32 27 162 96 152 80 -4 -7 -1 -10 7 -7 8 3 14 10 14 16 0 5 3
13 6 16 3 3 6 -1 6 -10 0 -9 -24 -32 -54 -51 -56 -38 -70 -59 -28 -43 16 6 25
6 25 0 0 -6 6 -10 14 -10 7 0 16 -10 19 -21 4 -15 11 -20 23 -15 11 4 15 2 11
-8 -5 -12 -1 -13 19 -6 37 15 47 12 41 -9 -4 -17 0 -20 35 -19 21 0 41 -2 44
-5 3 -3 -1 -28 -10 -56 -8 -28 -13 -51 -11 -51 2 0 13 16 25 36 12 19 24 33
27 30 9 -8 -56 -116 -70 -116 -3 0 -27 -21 -53 -47 -26 -27 -40 -39 -32 -28
24 31 82 152 65 135 -29 -29 -81 -135 -79 -162 3 -33 -21 -48 -77 -48 -47 0
-53 -11 -13 -27 15 -7 20 -12 12 -11 -44 2 -52 -2 -47 -22 6 -22 -19 -54 -34
-45 -5 4 -10 18 -10 33 -1 17 -3 21 -6 9 -2 -9 -9 -14 -15 -11 -6 4 -6 -1 1
-14 16 -30 14 -35 -13 -28 -16 4 -26 1 -30 -9 -3 -8 -1 -15 4 -15 6 0 10 -11
10 -24 0 -18 -7 -25 -29 -29 -16 -4 -41 -18 -55 -31 -22 -23 -56 -27 -56 -7 0
4 -6 15 -13 25 -12 16 -13 14 -9 -17 2 -19 2 -43 0 -53 -3 -15 -7 -13 -20 13
-16 33 -12 89 10 116 5 7 13 27 17 45 6 30 25 46 25 20 0 -23 13 3 20 39 3 21
11 37 18 36 7 -2 9 4 5 13 -5 13 -2 15 15 9 15 -4 22 -2 22 7 0 7 14 29 30 48
23 27 29 41 24 63 -3 16 -1 27 5 27 6 0 11 -5 11 -11 0 -5 4 -7 10 -4 5 3 9
16 8 28 0 12 3 31 8 42 7 18 6 18 -9 6 -9 -7 -17 -20 -17 -27 0 -8 -6 -14 -13
-14 -8 0 -19 -12 -26 -26 -6 -14 -29 -47 -51 -72 -54 -63 -101 -139 -154 -248
-24 -50 -51 -94 -60 -97 -9 -4 -16 -17 -16 -31 0 -27 -38 -63 -79 -73 -67 -17
-260 -117 -261 -136 0 -4 14 -10 30 -14 57 -11 69 2 -185 -195 -84 -65 -114
-94 -102 -96 10 -2 36 3 58 12 54 22 49 6 -14 -37 -29 -20 -68 -53 -87 -73
l-35 -37 30 7 c30 6 30 6 -10 -26 -22 -18 -67 -59 -100 -91 -54 -53 -56 -57
-22 -37 21 12 40 20 43 18 2 -3 -39 -33 -91 -67 -89 -59 -112 -81 -82 -81 19
1 54 30 36 30 -8 1 -2 7 12 15 15 8 37 12 49 10 12 -2 38 2 57 10 48 20 61 19
65 -8 3 -22 16 -25 66 -14 19 5 21 3 13 -12 -6 -10 -37 -48 -71 -85 -33 -36
-60 -69 -60 -73 0 -3 24 16 54 43 29 27 80 71 112 99 l59 49 -47 -51 c-45 -49
-58 -73 -40 -73 5 0 17 7 28 15 31 23 36 18 32 -30 -2 -25 -3 -45 -2 -45 1 0
13 24 28 53 14 28 38 66 52 82 23 26 21 21 -10 -36 -19 -37 -40 -79 -46 -94
l-11 -28 27 18 27 18 -22 -31 c-31 -44 -41 -47 -42 -15 0 15 -3 22 -6 15 -3
-7 -2 -25 2 -39 l6 -26 56 54 c30 30 82 90 116 134 73 97 141 178 222 266 135
149 169 193 191 246 15 36 15 37 -3 23 -10 -8 -45 -41 -78 -74 -33 -34 -69
-68 -80 -76 -42 -32 8 25 116 130 59 58 114 119 122 135 8 17 26 41 40 54 25
22 26 22 20 2 -3 -11 -9 -18 -14 -15 -8 5 -13 -10 -10 -29 1 -5 -3 -6 -8 -3
-5 4 -13 1 -17 -5 -4 -8 -3 -9 4 -5 21 13 13 -10 -19 -54 -41 -57 -82 -141
-103 -212 -22 -75 -42 -97 -89 -100 -35 -2 -41 -7 -62 -48 -31 -63 -65 -166
-70 -211 -2 -22 -7 -49 -11 -61 -6 -20 -2 -18 32 11 74 65 245 312 342 493 59
113 54 141 -7 38 -23 -39 -44 -70 -46 -70 -5 0 5 31 15 45 9 13 19 55 13 55
-2 0 -13 -5 -24 -11 -54 -28 85 171 169 244 24 20 39 37 34 37 -6 0 -12 6 -15
13 -4 10 2 13 19 9 17 -3 30 3 45 19 l20 24 -17 -28 -17 -29 39 8 c21 3 56 13
77 22 35 13 37 16 22 32 -15 16 -14 18 2 25 24 11 29 12 54 14 19 1 20 3 8 18
-13 15 -12 15 9 4 14 -8 37 -9 65 -5 23 5 75 8 115 8 39 0 72 4 72 9 0 4 -4 5
-10 2 -6 -3 -7 1 -4 9 8 20 61 47 78 40 8 -3 37 -1 65 4 40 7 55 6 66 -4 11
-11 15 -11 24 0 6 7 8 16 4 19 -3 4 -1 7 6 7 8 0 10 -7 5 -22 -6 -21 -5 -22
11 -8 11 9 16 10 11 3 -4 -7 -3 -13 2 -13 14 0 33 26 25 33 -3 4 0 7 7 7 7 0
10 3 7 6 -4 4 -13 2 -20 -4 -18 -15 -66 6 -64 28 1 17 37 26 37 9 0 -14 132
39 160 65 14 13 45 36 69 52 l45 29 -29 3 c-22 3 -36 -5 -67 -37 -31 -32 -49
-41 -86 -46 -26 -3 -55 -8 -64 -9 -9 -2 -25 6 -35 17 -17 20 -17 21 0 8 21
-16 30 -11 21 13 -4 10 -13 15 -21 12 -8 -3 -12 -2 -9 2 3 5 31 17 63 27 32
11 67 25 78 32 11 7 31 13 46 13 15 0 43 7 62 15 54 23 70 20 63 -10 -6 -25 7
-35 19 -15 4 6 11 8 16 5 8 -6 13 8 10 28 -1 4 14 15 34 24 19 9 32 21 28 26
-3 5 1 13 8 18 12 8 12 10 0 18 -11 7 -12 35 -2 99 1 2 7 0 14 -4 9 -6 9 -4
-1 8 -10 13 -10 17 0 21 9 4 7 6 -4 6 -10 1 -16 9 -15 21 1 20 2 20 18 -2 10
-12 17 -27 16 -32 -1 -4 11 -9 26 -10 l28 -2 -25 19 c-32 23 -33 38 -1 74 19
22 24 24 25 11 0 -23 14 -23 31 -1 10 11 10 14 2 9 -18 -10 -16 4 3 25 9 10
13 23 9 29 -6 9 -10 9 -16 -1 -4 -7 -11 -10 -15 -6 -4 4 1 14 12 22 25 19 35
19 28 0 -4 -8 -2 -15 4 -15 5 0 12 -9 15 -21 4 -13 10 -18 17 -14 9 6 9 9 0
15 -9 5 -11 19 -7 39 4 18 3 30 -2 27 -5 -3 -11 1 -15 9 -3 8 -1 15 5 15 6 0
7 5 4 10 -3 6 -1 10 5 10 6 0 4 8 -6 17 -13 13 -19 14 -22 5 -2 -6 -11 -12
-19 -12 -13 0 -13 3 -2 16 7 8 20 14 29 11 21 -5 35 12 36 46 1 19 -3 27 -15
26 -9 0 -11 -3 -4 -5 7 -3 9 -12 6 -20 -7 -18 -63 -49 -63 -34 0 5 11 12 23
15 23 6 34 35 13 35 -6 0 -4 5 4 10 20 13 63 13 55 0 -3 -5 -1 -10 4 -10 6 0
11 5 11 10 0 6 4 10 10 10 5 0 7 -8 4 -17 -4 -13 0 -11 15 6 12 13 21 28 21
35 0 7 -3 8 -8 1 -9 -14 -55 -17 -46 -4 3 6 17 14 30 19 13 5 24 16 24 24 0
10 6 13 15 10 8 -4 15 -1 15 5 0 6 9 11 21 11 11 0 17 -4 14 -10 -10 -16 4
-11 27 9 21 20 20 20 -28 15 l-49 -4 63 31 c34 17 62 35 62 39 0 5 14 17 30
25 17 9 28 19 26 24 -3 4 1 8 9 8 17 0 20 -13 6 -21 -12 -7 -8 -36 4 -37 5 0
11 4 13 10 2 6 -2 11 -8 11 -10 0 -10 3 0 14 6 8 17 13 24 10 7 -3 19 3 27 12
12 16 12 17 -1 10 -8 -4 -2 5 14 19 28 25 30 26 36 9 7 -17 8 -17 14 4 9 26
26 29 26 5 1 -17 1 -17 11 0 5 9 20 17 32 17 18 0 19 2 7 10 -24 16 -2 11 32
-6 16 -9 28 -11 24 -6 -18 30 294 28 504 -3 108 -16 259 -35 275 -34 34 2 -93
27 -240 48 -77 11 -212 25 -300 31 -169 12 -213 17 -154 19 33 1 101 40 72 41
-7 0 -12 4 -10 9 1 5 -23 27 -53 48 -262 185 -268 187 -384 186 -156 -2 -166
-2 -166 -12 0 -6 -8 -8 -17 -5 -16 5 -16 4 -2 -5 9 -6 59 -9 115 -8 70 1 98
-1 97 -9 -1 -8 6 -10 19 -6 16 4 19 2 13 -8 -6 -10 -4 -12 7 -7 16 6 66 -47
60 -65 -1 -4 5 -8 14 -8 8 0 13 4 9 9 -3 5 -1 12 4 15 5 3 11 -4 14 -15 4 -13
10 -18 18 -13 7 4 10 3 6 -3 -4 -6 -22 -10 -41 -9 -19 1 -32 -2 -30 -6 7 -10
3 -10 -36 3 -26 9 -34 9 -41 -2 -5 -8 -9 -9 -9 -3 0 17 -128 7 -146 -11 -17
-17 -28 -20 -19 -6 3 5 1 12 -5 16 -5 3 -10 0 -10 -7 0 -7 -22 -21 -50 -31
-28 -10 -50 -22 -50 -28 0 -6 9 -5 23 3 23 13 66 12 80 -2 5 -4 -4 -8 -20 -8
-71 -1 -103 -7 -108 -20 -2 -7 -9 -10 -15 -7 -5 3 -7 0 -4 -8 3 -10 -1 -14
-13 -14 -9 1 -18 -4 -18 -11 0 -8 -8 -20 -19 -27 -10 -8 -15 -18 -11 -24 3 -6
-1 -11 -11 -11 -10 0 -15 -3 -11 -6 3 -4 -1 -13 -10 -22 -14 -14 -14 -17 3
-23 18 -7 18 -8 1 -8 -20 -1 -47 -24 -47 -40 0 -5 8 -12 18 -15 9 -3 5 -4 -10
-2 -16 2 -28 -1 -28 -6 0 -5 -5 -6 -11 -2 -8 4 -7 0 1 -15 6 -12 18 -25 26
-28 8 -3 14 -8 14 -12 0 -12 -50 -32 -61 -25 -5 3 -8 0 -7 -7 2 -7 -1 -13 -7
-14 -5 0 -20 -7 -33 -16 l-23 -16 31 -7 c18 -3 41 -1 52 5 11 6 22 8 26 5 11
-12 -16 -28 -58 -33 -43 -6 -43 -6 -20 -23 l23 -17 -47 -14 -46 -13 37 -38
c20 -20 49 -40 65 -43 41 -9 49 -49 16 -82 l-25 -25 -62 60 -61 60 -63 -12
c-34 -7 -69 -16 -76 -21 -11 -6 -12 -4 -5 6 15 24 15 57 0 92 -11 28 -19 34
-40 32 -14 -2 -29 1 -32 6 -3 5 -26 20 -52 33 -26 13 -58 36 -72 51 l-25 28
40 -25 c22 -13 45 -27 51 -31 6 -3 11 0 11 8 0 8 -2 13 -5 10 -13 -12 -67 32
-98 81 -20 31 -38 53 -41 51 -2 -3 3 -17 13 -31 l17 -27 -27 11 c-15 5 -39 8
-54 5 -22 -4 -23 -4 -7 4 18 8 19 9 3 16 -24 9 -11 28 14 22 16 -5 17 -3 7 10
-7 8 -14 21 -15 28 -1 7 -9 21 -17 31 -9 11 -31 38 -51 62 -33 40 -52 68 -116
174 -18 29 -65 75 -127 124 -129 102 -132 104 -114 81 8 -9 11 -20 8 -24 -4
-3 -24 14 -46 38 -21 24 -41 42 -44 39 -3 -3 25 -36 61 -75 36 -38 58 -57 48
-42 -28 46 -11 43 48 -8 53 -46 66 -67 82 -130 7 -29 8 -29 12 -5 2 14 8 29
12 34 12 12 42 -13 33 -27 -3 -6 -1 -7 6 -3 7 5 21 -14 40 -53 15 -33 31 -58
35 -54 9 10 7 -10 -4 -27 -7 -11 -13 -4 -29 30 -17 39 -20 42 -22 20 -1 -14
-1 -35 0 -47 1 -13 -1 -23 -4 -23 -19 0 -44 23 -55 50 -7 16 -16 30 -21 30 -5
0 -14 20 -20 45 -6 25 -16 48 -21 51 -12 7 0 -40 23 -93 10 -24 13 -43 8 -43
-5 0 -12 7 -15 15 -4 8 -13 15 -21 15 -10 0 -12 6 -8 21 4 12 3 19 -2 16 -5
-3 -22 3 -39 14 -31 20 -59 26 -49 9 9 -15 -1 -12 -45 10 -22 11 -40 15 -42
10 -2 -7 -23 -7 -61 0 -32 6 -67 8 -78 5 -11 -4 -55 -3 -97 1 -76 8 -76 9 -32
15 36 6 31 7 -24 4 -42 -2 -63 0 -55 6 10 6 7 9 -12 9 -39 0 -123 31 -109 40
13 8 -31 19 -251 64 -89 18 -149 37 -207 66 -45 22 -82 42 -82 44 0 2 43 -11
95 -30 91 -32 283 -86 353 -98 29 -5 31 -4 18 9 -8 8 -21 15 -30 15 -8 0 -18
5 -21 10 -12 19 -120 68 -180 80 -33 8 -80 24 -105 38 -52 28 -49 27 130 -28
74 -22 143 -39 153 -36 11 2 16 2 12 -2 -5 -6 29 -15 170 -46 18 -4 9 2 -20
15 -56 24 -599 199 -617 199 -21 0 -178 113 -240 172 -33 32 -65 58 -69 58 -5
0 -9 -10 -9 -22z m2940 -432 c0 -2 -11 -6 -25 -8 -13 -3 -22 -1 -19 3 5 9 44
13 44 5z m210 -146 c0 -5 -5 -10 -11 -10 -5 0 -7 5 -4 10 3 6 8 10 11 10 2 0
4 -4 4 -10z m-33 -16 c-3 -3 -12 -4 -19 -1 -8 3 -5 6 6 6 11 1 17 -2 13 -5z
m-139 -16 c-3 -7 -20 -14 -38 -16 -30 -3 -32 -2 -21 12 16 19 65 22 59 4z
m202 -8 c0 -5 -4 -10 -10 -10 -5 0 -10 5 -10 10 0 6 5 10 10 10 6 0 10 -4 10
-10z m55 -10 c-6 -9 8 -14 28 -11 5 1 5 -4 1 -10 -5 -9 -2 -10 9 -6 10 3 17 2
17 -3 0 -6 9 -6 25 0 14 5 25 6 25 1 0 -18 -55 -18 -104 -1 -47 17 -51 20 -27
24 5 0 13 4 17 9 11 10 16 9 9 -3z m85 -5 c0 -8 -4 -15 -10 -15 -5 0 -10 7
-10 15 0 8 5 15 10 15 6 0 10 -7 10 -15z m-1688 -115 c34 -22 57 -40 50 -40
-7 0 -20 5 -30 10 -9 6 -39 19 -67 31 -38 15 -46 22 -35 29 20 13 13 15 82
-30z m158 -35 c5 3 23 -14 41 -36 26 -33 28 -39 11 -30 -11 6 -24 16 -27 21
-3 6 -11 10 -16 10 -6 0 -7 -5 -3 -12 5 -7 2 -8 -7 -3 -25 14 -49 38 -49 48 0
6 8 3 18 -5 18 -16 55 -21 46 -6 -3 5 -9 6 -14 3 -9 -5 -50 46 -50 62 0 4 10
-7 21 -24 12 -18 25 -31 29 -28z m-169 -71 c8 -10 3 -10 -20 2 -17 9 -31 17
-31 19 0 8 40 -9 51 -21z m1304 6 c-3 -5 -11 -10 -16 -10 -6 0 -7 5 -4 10 3 6
11 10 16 10 6 0 7 -4 4 -10z m-1405 -20 c0 -5 -2 -10 -4 -10 -3 0 -8 5 -11 10
-3 6 -1 10 4 10 6 0 11 -4 11 -10z m1045 0 c-3 -5 -10 -10 -16 -10 -5 0 -9 5
-9 10 0 6 7 10 16 10 8 0 12 -4 9 -10z m-804 -27 c13 -16 12 -17 -3 -4 -17 13
-22 21 -14 21 2 0 10 -8 17 -17z m46 -19 c0 -7 -6 -10 -14 -7 -7 3 -13 8 -13
12 0 4 6 8 13 8 8 0 14 -6 14 -13z m-7 -35 c0 -11 -21 -12 -46 -2 -16 6 -16 7
2 13 22 8 44 2 44 -11z m-53 -11 c26 -12 52 -36 53 -49 0 -9 -52 2 -66 13 -11
8 -26 48 -19 48 2 0 17 -6 32 -12z m115 -13 c13 -3 28 -11 33 -19 6 -7 26 -17
45 -21 33 -8 34 -9 10 -15 -14 -4 -35 -3 -47 1 -13 5 -23 6 -23 3 0 -3 -13 4
-30 16 -27 19 -45 61 -20 45 5 -3 20 -8 32 -10z m-277 -5 c16 -7 12 -9 -20
-11 l-40 -2 40 -6 40 -6 -53 -19 c-29 -10 -56 -15 -59 -12 -4 3 -1 6 5 6 7 0
11 3 11 8 -1 4 0 10 1 15 1 4 4 12 5 17 1 6 3 12 4 15 2 8 44 5 66 -5z m252
-55 c12 -9 33 -14 45 -12 13 2 16 2 8 -1 -9 -3 7 -15 40 -33 30 -15 48 -28 40
-28 -8 -1 -28 6 -44 14 -22 11 -26 12 -17 2 6 -8 7 -18 3 -22 -4 -5 -2 -6 3
-3 6 3 18 -2 27 -11 16 -16 15 -17 -6 -16 -12 1 -28 5 -35 9 -10 6 -11 3 -6
-13 9 -28 -3 -27 -16 2 -7 18 -8 15 -4 -15 8 -51 -9 -49 -36 3 -17 34 -18 43
-7 50 10 7 9 9 -4 9 -10 0 -18 -4 -18 -8 0 -13 -99 3 -113 17 -10 10 -3 12 33
11 71 -3 71 -3 60 24 -6 17 -5 26 3 30 19 7 21 7 44 -9z m226 -48 c18 -8 38
-21 46 -30 12 -15 11 -17 -5 -17 -16 -1 -15 -3 6 -15 24 -13 24 -14 5 -20 -42
-15 -91 -38 -107 -52 -9 -8 -27 -13 -40 -10 l-23 4 23 8 c22 7 22 8 5 27 -17
19 -17 19 10 13 15 -4 27 -3 27 2 0 5 13 8 29 5 39 -5 49 15 11 23 -38 8 -49
24 -12 17 24 -5 26 -4 13 11 -7 10 -10 17 -5 17 4 0 -1 7 -12 15 -24 18 -13
19 29 2z m537 -21 c0 -3 -4 -8 -10 -11 -5 -3 -10 -1 -10 4 0 6 5 11 10 11 6 0
10 -2 10 -4z m-440 -60 c0 -2 -28 -22 -62 -46 -69 -47 -68 -41 2 14 41 32 60
42 60 32z m270 -10 c0 -11 -19 -15 -25 -6 -3 5 1 10 9 10 9 0 16 -2 16 -4z
m-670 -56 c0 -16 -4 -30 -10 -30 -11 0 -14 43 -3 53 11 12 13 8 13 -23z m71
-2 c-27 -21 -53 -24 -45 -4 6 16 46 36 58 28 5 -3 -1 -13 -13 -24z m281 -38
c-18 -16 -37 -30 -44 -30 -14 0 52 59 66 60 5 0 -5 -13 -22 -30z m-144 3 c-10
-2 -26 -2 -35 0 -10 3 -2 5 17 5 19 0 27 -2 18 -5z m368 -20 c-10 -11 -128
-55 -148 -56 -10 -1 -18 -5 -18 -10 0 -5 -8 -1 -17 8 -16 16 -15 18 8 36 13
10 35 20 49 22 46 7 133 7 126 0z m-426 -43 c0 -5 -4 -10 -10 -10 -5 0 -10 5
-10 10 0 6 5 10 10 10 6 0 10 -4 10 -10z m-33 -16 c-3 -3 -12 -4 -19 -1 -8 3
-5 6 6 6 11 1 17 -2 13 -5z m-81 -124 c14 6 27 10 30 10 2 0 -6 -21 -19 -47
-24 -53 -47 -76 -61 -63 -5 5 -19 5 -32 0 -13 -5 -26 -5 -29 -1 -3 5 2 11 10
15 8 3 15 12 15 21 0 8 5 14 12 13 7 -2 17 14 22 35 7 28 12 34 18 23 7 -12
14 -13 34 -6z m-160 -125 c-11 -8 -25 -15 -30 -15 -6 1 0 7 14 15 32 19 40 18
16 0z m83 -6 c-16 -10 -23 -4 -14 10 3 6 11 8 17 5 6 -4 5 -9 -3 -15z m236
-207 c-11 -1 -46 -10 -79 -18 -40 -11 -62 -12 -69 -5 -11 11 1 15 88 29 28 5
57 6 65 3 11 -4 10 -6 -5 -9z m-851 -147 c-7 -41 -37 -77 -209 -255 -127 -133
-355 -346 -301 -282 11 12 16 22 11 22 -4 0 101 108 233 239 197 196 243 247
253 280 15 50 23 47 13 -4z m26 -31 c0 -14 -4 -23 -10 -19 -5 3 -10 15 -10 26
0 10 5 19 10 19 6 0 10 -12 10 -26z m286 -20 c-4 -9 -9 -15 -11 -12 -3 3 -3
13 1 22 4 9 9 15 11 12 3 -3 3 -13 -1 -22z m-247 -61 c-8 -10 -44 -52 -80 -93
-84 -96 -84 -97 -64 -120 17 -19 15 -22 -33 -77 -67 -77 -235 -241 -231 -226
2 7 45 57 96 111 124 134 144 158 141 174 -2 7 4 12 12 10 12 -3 13 -1 2 10
-15 15 -30 1 -241 -242 -150 -173 -189 -215 -175 -190 52 93 420 532 517 617
57 50 87 64 56 26z m-119 -63 c-40 -44 -111 -110 -159 -147 -47 -36 -102 -80
-121 -97 -19 -17 15 19 76 79 105 103 262 245 272 245 2 0 -28 -36 -68 -80z
m240 40 c-6 -11 -13 -20 -16 -20 -2 0 0 9 6 20 6 11 13 20 16 20 2 0 0 -9 -6
-20z m-42 -60 c-7 -10 -14 -17 -17 -15 -4 4 18 35 25 35 2 0 -1 -9 -8 -20z
m-673 -300 c-3 -5 -20 -19 -38 -30 -32 -22 -32 -22 3 9 37 32 45 37 35 21z
m184 -216 c-24 -25 -62 -60 -84 -76 -23 -19 -7 2 39 50 44 45 82 79 85 76 3
-2 -15 -25 -40 -50z m-149 -87 c0 -2 -10 -12 -22 -23 l-23 -19 19 23 c18 21
26 27 26 19z"/>
<path d="M2720 2471 c0 -9 29 -48 31 -41 9 27 4 46 -12 47 -11 1 -19 -2 -19
-6z"/>
<path d="M1041 3537 c9 -6 14 -17 12 -23 -5 -15 79 -71 118 -79 16 -4 29 -11
29 -15 0 -5 8 -7 18 -3 9 3 13 2 9 -2 -7 -8 79 -38 147 -51 16 -3 39 -10 52
-14 12 -5 24 -6 27 -3 6 5 -17 33 -27 33 -3 0 -70 31 -148 69 -133 65 -275
118 -237 88z"/>
<path d="M2160 3455 c0 -7 63 -45 74 -45 5 0 -8 11 -28 25 -37 25 -46 29 -46
20z"/>
<path d="M2908 3330 c31 -63 70 -144 85 -180 22 -52 30 -62 37 -49 22 39 -55
210 -130 291 l-49 53 57 -115z"/>
<path d="M2170 3384 c0 -8 5 -12 10 -9 6 4 8 11 5 16 -9 14 -15 11 -15 -7z"/>
<path d="M1670 3295 c0 -11 126 -77 195 -101 l40 -14 -25 20 c-45 36 -210 111
-210 95z"/>
<path d="M2030 3251 c0 -5 7 -12 16 -15 14 -5 15 -4 4 9 -14 17 -20 19 -20 6z"/>
<path d="M2128 3173 c12 -21 42 -49 42 -39 0 4 12 -5 27 -19 15 -14 31 -25 35
-25 4 0 24 -14 45 -32 26 -21 22 -15 -12 19 -62 61 -152 125 -137 96z"/>
<path d="M1911 3176 c2 -2 15 -9 29 -15 24 -11 24 -11 6 3 -16 13 -49 24 -35
12z"/>
<path d="M2037 3109 c7 -7 15 -10 18 -7 3 3 -2 9 -12 12 -14 6 -15 5 -6 -5z"/>
<path d="M3126 3100 c3 -14 10 -29 15 -34 5 -6 9 -20 9 -32 0 -25 21 -46 37
-36 7 5 -3 28 -29 67 -22 33 -36 49 -32 35z"/>
<path d="M3570 3090 c0 -6 -6 -10 -13 -10 -7 0 -22 -7 -33 -14 -16 -13 -12
-12 26 0 54 19 55 20 35 27 -8 4 -15 2 -15 -3z"/>
<path d="M2030 3073 c0 -9 52 -35 58 -29 2 3 -10 12 -27 21 -17 8 -31 12 -31
8z"/>
<path d="M3586 3054 c-63 -25 -72 -31 -64 -40 3 -3 23 4 44 15 21 12 46 21 56
21 24 0 48 11 48 21 0 13 -19 10 -84 -17z"/>
<path d="M1280 3049 c0 -24 19 -32 166 -69 70 -18 175 -35 285 -45 96 -9 199
-20 229 -24 30 -5 75 -6 100 -2 42 6 38 7 -65 24 -60 10 -189 28 -285 42 -141
19 -318 58 -417 90 -8 3 -13 -4 -13 -16z"/>
<path d="M2750 3040 c0 -5 5 -10 11 -10 5 0 7 5 4 10 -3 6 -8 10 -11 10 -2 0
-4 -4 -4 -10z"/>
<path d="M3475 3030 c-15 -17 -16 -20 -3 -20 19 0 42 26 30 34 -5 3 -17 -3
-27 -14z"/>
<path d="M2280 3026 c0 -3 9 -10 20 -16 11 -6 20 -8 20 -6 0 3 -9 10 -20 16
-11 6 -20 8 -20 6z"/>
<path d="M2930 2995 c13 -14 26 -25 28 -25 3 0 -5 11 -18 25 -13 14 -26 25
-28 25 -3 0 5 -11 18 -25z"/>
<path d="M3875 3011 c-3 -5 -2 -12 3 -15 5 -3 9 1 9 9 0 17 -3 19 -12 6z"/>
<path d="M1328 2972 c19 -23 54 -56 78 -74 24 -17 44 -35 44 -39 0 -9 18 -15
70 -23 l35 -6 -30 14 c-22 11 -25 15 -11 15 15 1 16 4 6 16 -10 12 -10 15 4
15 9 0 16 7 16 15 0 8 -5 15 -11 15 -5 0 -7 5 -3 12 4 6 3 8 -4 4 -6 -3 -13
-2 -17 3 -3 6 -44 22 -90 36 -47 14 -93 29 -103 32 -11 5 -6 -7 16 -35z"/>
<path d="M3421 2984 c-22 -28 -28 -50 -11 -39 6 3 10 2 10 -3 0 -13 -35 -43
-42 -36 -3 3 -6 -10 -5 -29 1 -27 3 -32 13 -22 7 6 14 21 16 31 2 10 9 24 17
30 7 6 15 21 16 35 2 13 6 32 10 42 10 25 0 21 -24 -9z"/>
<path d="M3073 2940 c0 -30 2 -43 4 -27 2 15 2 39 0 55 -2 15 -4 2 -4 -28z"/>
<path d="M3226 2955 c-3 -9 -6 -30 -6 -46 0 -34 -25 -89 -41 -89 -6 0 -7 6 -4
13 4 6 -2 1 -13 -12 -10 -13 -24 -21 -29 -18 -6 4 -10 -1 -9 -10 1 -22 62 -65
85 -61 9 2 17 14 19 26 3 18 7 21 16 13 10 -8 20 -6 39 9 l26 21 -19 45 c-11
25 -20 51 -20 57 0 7 -8 25 -19 40 -15 24 -19 26 -25 12z"/>
<path d="M3615 2950 c-3 -6 1 -7 9 -4 18 7 21 14 7 14 -6 0 -13 -4 -16 -10z"/>
<path d="M2487 2943 c-4 -3 -7 -11 -7 -17 0 -6 5 -5 12 2 6 6 9 14 7 17 -3 3
-9 2 -12 -2z"/>
<path d="M3014 2909 c3 -27 1 -30 -18 -25 -11 2 -43 7 -71 10 l-50 5 53 -12
c49 -11 77 -31 66 -48 -2 -4 5 -14 16 -22 11 -7 17 -17 12 -22 -4 -5 -2 -5 4
-2 6 4 22 -5 34 -18 21 -22 20 -30 -3 -26 -4 1 -2 -8 5 -18 10 -16 9 -23 -8
-38 -11 -10 -15 -15 -9 -11 6 4 20 5 32 2 12 -3 31 0 43 6 l22 12 -28 29 c-22
23 -26 32 -15 38 11 7 11 12 0 29 -9 15 -17 18 -25 11 -16 -13 -64 16 -64 38
0 11 7 9 30 -7 17 -12 30 -17 30 -11 0 5 -5 13 -10 16 -6 4 -8 11 -4 16 5 8
-32 79 -42 79 -2 0 -2 -14 0 -31z"/>
<path d="M2848 2893 c7 -3 16 -2 19 1 4 3 -2 6 -13 5 -11 0 -14 -3 -6 -6z"/>
<path d="M2235 2880 c3 -5 13 -10 21 -10 8 0 14 5 14 10 0 6 -9 10 -21 10 -11
0 -17 -4 -14 -10z"/>
<path d="M1573 2823 c9 -2 23 -2 30 0 6 3 -1 5 -18 5 -16 0 -22 -2 -12 -5z"/>
<path d="M4175 2780 c-7 -11 9 -11 45 0 24 8 24 8 -7 9 -17 1 -35 -3 -38 -9z"/>
<path d="M2934 2766 c11 -9 24 -16 30 -16 12 0 7 5 -24 19 -24 11 -24 11 -6
-3z"/>
<path d="M3316 2751 c0 -14 5 -27 10 -28 14 -4 15 45 1 50 -8 3 -12 -5 -11
-22z"/>
<path d="M4048 2763 c7 -3 16 -2 19 1 4 3 -2 6 -13 5 -11 0 -14 -3 -6 -6z"/>
<path d="M3289 2743 c-13 -16 -12 -17 4 -4 16 13 21 21 13 21 -2 0 -10 -8 -17
-17z"/>
<path d="M4090 2750 c-8 -5 -10 -10 -5 -10 6 0 17 5 25 10 8 5 11 10 5 10 -5
0 -17 -5 -25 -10z"/>
<path d="M2840 2739 c-25 -3 -39 -7 -32 -7 6 -1 12 -11 12 -22 0 -19 -10 -25
-39 -20 -12 1 -13 -1 -3 -13 8 -9 21 -13 34 -9 13 3 26 -1 34 -12 8 -12 19
-16 33 -11 27 8 27 40 1 58 -40 28 10 27 83 -2 39 -15 46 -14 40 9 -4 16 -2
19 13 14 24 -9 16 0 -15 16 -15 8 -21 8 -17 1 8 -13 -25 -15 -69 -3 -17 4 -50
5 -75 1z"/>
<path d="M3915 2740 c-3 -5 -1 -10 4 -10 6 0 11 5 11 10 0 6 -2 10 -4 10 -3 0
-8 -4 -11 -10z"/>
<path d="M4015 2730 c-3 -6 1 -7 9 -4 18 7 21 14 7 14 -6 0 -13 -4 -16 -10z"/>
<path d="M4035 2699 c3 -3 -7 -12 -20 -19 -14 -7 -25 -17 -25 -22 0 -4 -7 -8
-15 -8 -8 0 -15 -5 -15 -11 0 -6 -7 -8 -16 -5 -12 5 -15 2 -10 -10 4 -12 2
-15 -9 -10 -9 3 -15 0 -15 -9 0 -7 -5 -17 -12 -21 -7 -4 -8 -3 -4 4 4 7 4 12
1 12 -3 0 -11 -13 -16 -30 -6 -16 -15 -30 -20 -30 -4 0 -19 -12 -32 -26 -18
-19 -27 -23 -32 -14 -5 8 -1 18 10 27 11 7 14 13 9 13 -15 0 -34 -22 -34 -39
-1 -24 -34 -59 -63 -66 -19 -5 -33 -21 -50 -59 -13 -28 -30 -58 -38 -66 -8 -8
-20 -28 -27 -43 -7 -16 -17 -25 -23 -22 -6 4 -9 1 -7 -6 1 -8 -10 -36 -25 -62
-16 -26 -27 -53 -24 -60 6 -18 -15 -34 -39 -29 -15 3 -26 -3 -33 -17 -11 -19
-9 -21 18 -21 16 0 33 -4 36 -10 4 -6 -6 -10 -22 -10 -69 0 -89 -22 -60 -65
21 -32 18 -63 -9 -84 -24 -19 -51 -81 -35 -81 31 0 119 156 161 285 51 156
101 225 304 417 88 84 176 165 194 178 26 21 29 26 13 26 -11 0 -18 -3 -16 -7z
m-315 -283 c0 -3 -4 -8 -10 -11 -5 -3 -10 -1 -10 4 0 6 5 11 10 11 6 0 10 -2
10 -4z"/>
<path d="M3240 2665 c-25 -13 -39 -24 -32 -25 11 0 44 15 81 38 2 1 2 4 0 6
-2 2 -24 -7 -49 -19z"/>
<path d="M3860 2680 c0 -5 5 -10 11 -10 5 0 7 5 4 10 -3 6 -8 10 -11 10 -2 0
-4 -4 -4 -10z"/>
<path d="M1773 2673 c9 -2 23 -2 30 0 6 3 -1 5 -18 5 -16 0 -22 -2 -12 -5z"/>
<path d="M3906 2653 c-6 -14 -5 -15 5 -6 7 7 10 15 7 18 -3 3 -9 -2 -12 -12z"/>
<path d="M2815 2650 c3 -5 8 -10 11 -10 2 0 4 5 4 10 0 6 -5 10 -11 10 -5 0
-7 -4 -4 -10z"/>
<path d="M2258 2643 c7 -3 16 -2 19 1 4 3 -2 6 -13 5 -11 0 -14 -3 -6 -6z"/>
<path d="M1775 2630 c-34 -6 -29 -7 30 -8 39 0 81 4 95 8 32 10 -67 10 -125 0z"/>
<path d="M3800 2630 c0 -5 7 -10 15 -10 8 0 15 5 15 10 0 6 -7 10 -15 10 -8 0
-15 -4 -15 -10z"/>
<path d="M3090 2616 c0 -2 9 -6 20 -9 11 -3 18 -1 14 4 -5 9 -34 13 -34 5z"/>
<path d="M1630 2600 c0 -17 75 -90 111 -108 62 -31 72 -21 48 41 -12 29 -22
54 -24 56 -7 7 -135 17 -135 11z"/>
<path d="M2073 2563 c9 -2 23 -2 30 0 6 3 -1 5 -18 5 -16 0 -22 -2 -12 -5z"/>
<path d="M3117 2563 c-4 -3 -7 -11 -7 -17 0 -6 5 -5 12 2 6 6 9 14 7 17 -3 3
-9 2 -12 -2z"/>
<path d="M3665 2516 c-11 -7 -15 -18 -10 -25 5 -9 11 -7 22 9 19 26 13 34 -12
16z"/>
<path d="M1838 2463 c-50 -4 -60 -15 -47 -50 7 -21 15 -23 73 -23 36 0 67 4
70 9 6 9 -61 40 -92 42 -9 1 15 7 53 14 72 13 48 16 -57 8z"/>
<path d="M3561 2440 c-9 -5 -5 -9 10 -13 28 -7 31 -6 14 10 -6 6 -18 8 -24 3z"/>
<path d="M3566 2388 c3 -4 11 -5 19 -1 21 7 19 12 -4 10 -11 0 -18 -5 -15 -9z"/>
<path d="M3626 2384 c-5 -14 -4 -15 9 -4 17 14 19 20 6 20 -5 0 -12 -7 -15
-16z"/>
<path d="M1853 2363 c9 -2 23 -2 30 0 6 3 -1 5 -18 5 -16 0 -22 -2 -12 -5z"/>
<path d="M3555 2360 c-3 -5 -1 -10 4 -10 6 0 11 5 11 10 0 6 -2 10 -4 10 -3 0
-8 -4 -11 -10z"/>
<path d="M2236 2262 c-3 -5 -46 -26 -96 -47 -101 -41 -103 -50 -18 -70 l54
-12 36 68 c20 38 35 69 33 69 -2 0 -6 -4 -9 -8z"/>
<path d="M2256 2023 c-6 -14 -5 -15 5 -6 7 7 10 15 7 18 -3 3 -9 -2 -12 -12z"/>
<path d="M3380 2029 c0 -5 5 -7 10 -4 6 3 10 8 10 11 0 2 -4 4 -10 4 -5 0 -10
-5 -10 -11z"/>
<path d="M2345 1991 c3 -5 1 -12 -4 -16 -6 -3 -8 -12 -4 -21 4 -11 9 -12 19
-3 19 15 18 35 -2 43 -8 3 -12 2 -9 -3z"/>
<path d="M2310 1951 c0 -6 5 -13 10 -16 6 -3 10 1 10 9 0 9 -4 16 -10 16 -5 0
-10 -4 -10 -9z"/>
<path d="M3061 1844 c-33 -48 -28 -48 31 0 42 35 47 46 19 46 -12 0 -32 -18
-50 -46z"/>
<path d="M3230 1843 c0 -19 11 -43 21 -43 13 0 11 14 -6 36 -8 10 -15 14 -15
7z"/>
<path d="M3282 1830 c0 -14 2 -19 5 -12 2 6 2 18 0 25 -3 6 -5 1 -5 -13z"/>
<path d="M3312 1765 c-16 -35 -15 -37 8 -25 11 6 20 20 20 30 0 28 -15 25 -28
-5z"/>
<path d="M2070 1690 c13 -23 20 -26 20 -6 0 8 -7 16 -15 20 -13 4 -14 2 -5
-14z"/>
<path d="M3087 1619 c8 -8 16 -8 30 0 16 9 14 10 -11 11 -22 0 -27 -3 -19 -11z"/>
<path d="M2534 1561 c4 -5 1 -12 -4 -14 -6 -3 -5 -4 2 -3 15 3 23 26 8 26 -6
0 -9 -4 -6 -9z"/>
<path d="M2559 1544 c-10 -13 -10 -17 1 -24 11 -7 9 -11 -10 -19 -17 -6 -19
-10 -8 -10 9 -1 29 -11 44 -24 23 -20 25 -26 15 -45 -7 -14 -21 -22 -36 -22
-14 0 -25 -4 -25 -10 0 -16 50 -23 76 -11 14 6 38 11 53 11 40 0 69 27 85 81
l13 47 -36 10 c-20 6 -61 14 -91 18 -30 3 -58 8 -61 10 -4 2 -13 -3 -20 -12z"/>
<path d="M2297 1463 c-15 -2 -25 -9 -22 -14 9 -13 39 -11 71 6 29 15 29 15 4
13 -14 0 -37 -3 -53 -5z"/>
<path d="M2174 1408 c-16 -17 -22 -27 -14 -23 8 5 21 17 28 26 7 10 19 16 27
13 8 -4 15 -4 15 -1 0 3 -6 7 -14 10 -7 3 -27 -8 -42 -25z"/>
<path d="M2206 1272 c-18 -71 -69 -172 -87 -172 -6 0 -8 4 -5 9 3 4 -3 8 -13
7 -44 -3 -152 -182 -181 -301 -20 -77 -23 -105 -14 -105 11 0 82 110 159 245
32 55 65 111 75 125 35 51 60 110 74 181 20 93 14 101 -8 11z"/>
<path d="M2154 1288 c0 -18 -12 -60 -27 -93 -15 -33 -20 -51 -12 -41 33 43 68
166 47 166 -4 0 -8 -15 -8 -32z"/>
<path d="M2239 1150 c-9 -5 -38 -41 -64 -80 -40 -57 -49 -79 -53 -125 -2 -30
-1 -55 4 -55 11 0 143 218 151 249 6 23 -10 28 -38 11z"/>
</g>
</svg>
